HIERARCHY
ROOT SpineBase
{
  OFFSET 0.000000 0.000000 0.000000
  CHANNELS 6 Xposition Yposition Zposition Zrotation Xrotation Yrotation
  JOINT SpineMid
  {
    OFFSET 0.000000 29.096127 0.000000
    CHANNELS 3 Zrotation Xrotation Yrotation
    JOINT SpineShoulder
    {
      OFFSET -0.176486 21.576392 -0.780841
      CHANNELS 3 Zrotation Xrotation Yrotation
      JOINT Neck
      {
        OFFSET -0.103034 7.118423 -0.599634
        CHANNELS 3 Zrotation Xrotation Yrotation
        JOINT Head
        {
          OFFSET 3.080594 9.940239 -1.063041
          CHANNELS 3 Zrotation Xrotation Yrotation
          End Site
          {
            OFFSET 0 0 0
          }
        }
      }
      JOINT ShoulderLeft
      {
        OFFSET -14.871028 -2.986943 -6.838769
        CHANNELS 3 Zrotation Xrotation Yrotation
        JOINT ElbowLeft
        {
          OFFSET -1.668203 -20.453962 -5.811864
          CHANNELS 3 Zrotation Xrotation Yrotation
          JOINT WristLeft
          {
            OFFSET 9.434153 -17.941911 -4.725944
            CHANNELS 3 Zrotation Xrotation Yrotation
            JOINT HandLeft
            {
              OFFSET 1.861980 -2.817090 3.044157
              CHANNELS 3 Zrotation Xrotation Yrotation
              JOINT HandTipLeft
              {
                OFFSET 5.886361 -4.658503 -4.002831
                CHANNELS 3 Zrotation Xrotation Yrotation
                End Site
                {
                  OFFSET 0 0 0
                }
              }
              JOINT ThumbLeft
              {
                OFFSET -5.574945 -4.556314 -1.203090
                CHANNELS 3 Zrotation Xrotation Yrotation
                End Site
                {
                  OFFSET 0 0 0
                }
              }
            }
          }
        }
      }
      JOINT ShoulderRight
      {
        OFFSET 16.139908 -3.835494 2.976637
        CHANNELS 3 Zrotation Xrotation Yrotation
        JOINT ElbowRight
        {
          OFFSET -1.488385 -25.449420 -5.113731
          CHANNELS 3 Zrotation Xrotation Yrotation
          JOINT WristRight
          {
            OFFSET -4.284462 -18.914011 -12.198194
            CHANNELS 3 Zrotation Xrotation Yrotation
            JOINT HandRight
            {
              OFFSET -5.234937 -0.640928 -0.902723
              CHANNELS 3 Zrotation Xrotation Yrotation
              JOINT HandTipRight
              {
                OFFSET -3.684067 -1.380682 -1.596584
                CHANNELS 3 Zrotation Xrotation Yrotation
                End Site
                {
                  OFFSET 0 0 0
                }
              }
              JOINT ThumbRight
              {
                OFFSET 0.053597 -2.520584 -0.321635
                CHANNELS 3 Zrotation Xrotation Yrotation
                End Site
                {
                  OFFSET 0 0 0
                }
              }
            }
          }
        }
      }
    }
  }
  JOINT HipLeft
  {
    OFFSET -6.128791 1.219938 -6.135476
    CHANNELS 3 Zrotation Xrotation Yrotation
    JOINT KneeLeft
    {
      OFFSET -7.813878 -27.303576 -2.551267
      CHANNELS 3 Zrotation Xrotation Yrotation
      JOINT AnkleLeft
      {
        OFFSET -4.874874 -33.173954 1.460952
        CHANNELS 3 Zrotation Xrotation Yrotation
        JOINT FootLeft
        {
          OFFSET 2.238059 -4.727197 -12.277239
          CHANNELS 3 Zrotation Xrotation Yrotation
          End Site
          {
            OFFSET 0 0 0
          }
        }
      }
    }
  }
  JOINT HipRight
  {
    OFFSET 5.115996 -0.393141 -1.549006
    CHANNELS 3 Zrotation Xrotation Yrotation
    JOINT KneeRight
    {
      OFFSET 1.352208 -27.711405 6.060892
      CHANNELS 3 Zrotation Xrotation Yrotation
      JOINT AnkleRight
      {
        OFFSET 0.884438 -29.020989 7.995083
        CHANNELS 3 Zrotation Xrotation Yrotation
        JOINT FootRight
        {
          OFFSET 2.373617 -8.103993 -4.312917
          CHANNELS 3 Zrotation Xrotation Yrotation
          End Site
          {
            OFFSET 0 0 0
          }
        }
      }
    }
  }
}
MOTION
Frames: 14
Frame Time: 0.033333
51.404621 82.357827 425.794558 -0.000000 0.000000 -22.189327 -0.000000 0.000000 22.189327 -0.000000 0.000000 0.000000 -0.000000 0.000000 0.000000 0.000000 0.000000 0.000000 -0.000000 0.000000 0.000000 -0.000000 0.000000 0.000000 -0.000000 0.000000 0.000000 -0.000000 0.000000 0.000000 0.000000 0.000000 0.000000 0.000000 0.000000 0.000000 -0.000000 0.000000 0.000000 -0.000000 0.000000 0.000000 -0.000000 0.000000 0.000000 -0.000000 0.000000 0.000000 0.000000 0.000000 0.000000 0.000000 0.000000 0.000000 -0.000000 0.000000 22.189327 -0.000000 0.000000 0.000000 -0.000000 0.000000 0.000000 0.000000 0.000000 0.000000 -0.000000 0.000000 22.189327 -0.000000 0.000000 0.000000 -0.000000 0.000000 0.000000 0.000000 0.000000 0.000000
51.430929 82.408685 425.747856 -0.030862 0.050807 -22.069516 0.047690 -0.035488 22.069545 -0.000000 0.000000 0.000000 -0.000000 0.000000 0.000000 0.000000 0.000000 0.000000 1.136690 -0.377063 -0.289004 -0.039803 -0.065491 -0.225869 -1.770350 -6.938356 -4.832003 -0.117801 5.493874 3.208828 0.000000 0.000000 0.000000 0.000000 0.000000 0.000000 1.846223 -1.093158 -0.290288 -3.494895 1.360903 1.348745 10.516580 -1.753473 -6.464404 -5.364028 0.628947 1.466656 0.000000 0.000000 0.000000 0.000000 0.000000 0.000000 0.047690 -0.035488 22.069545 -0.000000 0.000000 0.000000 0.908902 2.447751 -1.152652 0.000000 0.000000 0.000000 0.047690 -0.035488 22.069545 -0.000000 0.000000 0.000000 -0.000000 0.000000 0.000000 0.000000 0.000000 0.000000
51.460222 82.452832 425.709055 -0.057571 0.093414 -21.929079 0.088292 -0.065155 21.929176 -0.000000 0.000000 0.000000 -0.000000 0.000000 0.000000 0.000000 0.000000 0.000000 1.925094 -0.647184 -0.484836 0.003217 -0.152767 -0.423622 -4.009127 -13.704073 -10.001457 -0.488430 11.217713 7.005326 0.000000 0.000000 0.000000 0.000000 0.000000 0.000000 3.631723 -2.164541 -0.537789 -6.762504 2.540946 2.681021 18.383256 -3.813688 -11.213819 -8.872686 0.754567 2.282651 0.000000 0.000000 0.000000 0.000000 0.000000 0.000000 0.088292 -0.065155 21.929176 -0.000000 0.000000 0.000000 1.516309 4.009833 -1.906701 0.000000 0.000000 0.000000 0.088292 -0.065155 21.929176 -0.000000 0.000000 0.000000 -0.000000 0.000000 0.000000 0.000000 0.000000 0.000000
51.492501 82.490266 425.678156 -0.080109 0.127787 -21.767883 0.121786 -0.088966 21.768067 -0.000000 0.000000 0.000000 -0.000000 0.000000 0.000000 0.000000 0.000000 0.000000 2.428708 -0.827610 -0.607453 0.065525 -0.238593 -0.577003 -6.287117 -18.484112 -14.258339 -0.852763 15.377172 10.097565 0.000000 0.000000 0.000000 0.000000 0.000000 0.000000 5.329532 -3.195406 -0.742153 -9.742275 3.528087 3.949876 24.086742 -5.682868 -14.651059 -10.865649 0.654052 2.600165 0.000000 0.000000 0.000000 0.000000 0.000000 0.000000 0.121786 -0.088966 21.768067 -0.000000 0.000000 0.000000 1.838026 4.824297 -2.297000 0.000000 0.000000 0.000000 0.121786 -0.088966 21.768067 -0.000000 0.000000 0.000000 -0.000000 0.000000 0.000000 0.000000 0.000000 0.000000
51.527765 82.520989 425.655158 -0.098457 0.153892 -21.585718 0.148168 -0.106878 21.585988 -0.000000 0.000000 0.000000 -0.000000 0.000000 0.000000 0.000000 0.000000 0.000000 2.684605 -0.928956 -0.668228 0.110317 -0.308930 -0.676838 -7.683161 -19.779662 -16.069105 -0.642091 16.388343 11.114465 0.000000 0.000000 0.000000 0.000000 0.000000 0.000000 6.912087 -4.166564 -0.904847 -12.377034 4.316897 5.108886 28.113505 -7.160816 -17.163839 -11.724499 0.466402 2.600438 0.000000 0.000000 0.000000 0.000000 0.000000 0.000000 0.148168 -0.106878 21.585988 -0.000000 0.000000 0.000000 1.883842 4.961521 -2.342091 0.000000 0.000000 0.000000 -0.210965 -0.868887 21.420586 0.612646 0.578188 0.159252 0.651291 0.481492 -0.207518 0.000000 0.000000 0.000000
51.566014 82.545000 425.640062 -0.112600 0.171704 -21.382287 0.167451 -0.118832 21.382630 -0.000000 0.000000 0.000000 -0.000000 0.000000 0.000000 0.000000 0.000000 0.000000 2.710342 -0.956647 -0.672499 0.120305 -0.356606 -0.719040 -7.592658 -16.920299 -14.487596 0.376693 13.438119 9.337011 0.000000 0.000000 0.000000 0.000000 0.000000 0.000000 8.352041 -5.059116 -1.029014 -14.615452 4.907400 6.114880 30.820698 -8.186720 -19.028078 -11.736962 0.251441 2.413476 0.000000 0.000000 0.000000 0.000000 0.000000 0.000000 0.167451 -0.118832 21.382630 -0.000000 0.000000 0.000000 1.655511 4.432907 -2.044478 0.000000 0.000000 0.000000 -0.270594 -1.023579 21.183783 0.735429 0.685272 0.190081 0.884822 0.471870 -0.334851 0.000000 0.000000 0.000000
51.612973 82.556640 425.650753 -0.121113 0.156842 -21.114667 0.169482 -0.102682 21.114984 -0.000000 0.000000 0.000000 -0.000000 0.000000 0.000000 0.000000 0.000000 0.000000 2.423557 -0.883857 -0.600303 0.095611 -0.515035 -0.757357 -6.609272 -9.480124 -9.772700 1.094514 5.248308 5.071831 0.000000 0.000000 0.000000 0.000000 0.000000 0.000000 10.275240 -6.168612 -1.172785 -16.865903 5.143596 7.068083 31.065455 -7.700516 -19.029093 -8.755763 -0.076879 0.079001 0.000000 0.000000 0.000000 0.000000 0.000000 0.000000 0.169482 -0.102682 21.114984 -0.000000 0.000000 0.000000 1.467894 4.058327 -1.768733 0.000000 0.000000 0.000000 -0.344107 -1.125804 20.886785 0.844670 0.772716 0.216997 1.400527 0.307024 -0.655929 0.000000 0.000000 0.000000
51.665076 82.560992 425.663279 -0.109506 0.147760 -20.789876 0.154822 -0.099271 20.790151 -0.000000 0.000000 0.000000 -0.000000 0.000000 0.000000 0.000000 0.000000 0.000000 1.861912 -0.705071 -0.461550 0.036536 -0.649952 -0.721173 -4.589541 0.550703 -2.126318 1.920008 -3.675967 -1.693422 0.000000 0.000000 0.000000 0.000000 0.000000 0.000000 11.756180 -7.014773 -1.259761 -18.689568 5.297825 7.893625 32.831864 -8.160108 -20.647603 -8.056136 -0.510083 0.522788 0.000000 0.000000 0.000000 0.000000 0.000000 0.000000 0.154822 -0.099271 20.790151 -0.000000 0.000000 0.000000 0.610669 1.978228 -0.630038 0.000000 0.000000 0.000000 -0.425014 -1.217080 20.537502 0.935220 0.843256 0.239106 1.825555 0.166767 -0.920420 0.000000 0.000000 0.000000
51.706630 82.565214 425.665850 -0.104565 0.149280 -20.557924 0.150326 -0.103055 20.558195 -0.000000 0.000000 0.000000 -0.000000 0.000000 0.000000 0.000000 0.000000 0.000000 0.956467 -0.425203 -0.233957 0.029138 -0.601493 -0.554608 -3.236122 9.488414 4.717848 1.133384 -11.075808 -6.625321 0.000000 0.000000 0.000000 0.000000 0.000000 0.000000 12.491327 -7.445045 -1.293114 -19.425679 5.320498 8.205609 33.051102 -8.302168 -23.061942 -9.143129 -0.227626 1.759012 0.000000 0.000000 0.000000 0.000000 0.000000 0.000000 0.150326 -0.103055 20.558195 -0.000000 0.000000 0.000000 -0.726404 -1.683075 1.125309 0.000000 0.000000 0.000000 -0.487231 -1.298564 20.284664 1.012588 0.900221 0.257778 2.123796 0.073969 -1.103707 0.000000 0.000000 0.000000
51.749962 82.575590 425.654158 -0.111998 0.166822 -20.348062 0.163017 -0.117467 20.348392 -0.000000 0.000000 0.000000 -0.000000 0.000000 0.000000 0.000000 0.000000 0.000000 -0.000000 0.000000 0.000000 -0.000000 0.000000 0.000000 -3.193905 13.250612 6.669782 1.276972 -14.753306 -7.589399 0.000000 0.000000 0.000000 0.000000 0.000000 0.000000 12.813292 -7.648240 -1.303432 -20.028215 5.442191 8.525607 32.925019 -8.090016 -22.130854 -7.470900 -0.027683 -1.998479 0.000000 0.000000 0.000000 0.000000 0.000000 0.000000 0.163017 -0.117467 20.348392 -0.000000 0.000000 0.000000 -2.365384 -6.920159 3.264624 0.000000 0.000000 0.000000 -0.554279 -1.410208 20.046851 1.117110 0.968382 0.282537 2.125677 0.079517 -1.103157 0.000000 0.000000 0.000000
51.781804 82.583457 425.641812 -0.134663 0.186571 -20.121753 0.190628 -0.128857 20.122187 -0.000000 0.000000 0.000000 -0.000000 0.000000 0.000000 0.000000 0.000000 0.000000 -0.000000 0.000000 0.000000 -0.000000 0.000000 0.000000 -4.162155 15.561269 7.736812 -2.064263 -18.134290 -8.323456 0.000000 0.000000 0.000000 0.000000 0.000000 0.000000 11.924267 -7.478979 -1.207697 -18.547559 5.893471 7.739109 32.492238 -8.214701 -21.240750 -7.893756 0.215476 -3.131891 0.000000 0.000000 0.000000 0.000000 0.000000 0.000000 0.190628 -0.128857 20.122187 -0.000000 0.000000 0.000000 -4.070516 -13.297441 5.547264 0.000000 0.000000 0.000000 -0.602939 -1.499722 19.795759 1.211104 1.020904 0.304359 1.645519 0.201154 -0.815565 0.000000 0.000000 0.000000
51.805406 82.593247 425.634973 -0.172203 0.201087 -19.913801 0.230399 -0.130409 19.914365 -0.000000 0.000000 0.000000 0.621517 0.697960 -0.153985 0.000000 0.000000 0.000000 -0.000000 0.000000 0.000000 -0.723615 0.816169 0.625819 -3.930568 15.121079 6.607231 -0.514988 -17.228069 -6.038993 0.000000 0.000000 0.000000 0.000000 0.000000 0.000000 9.662469 -6.782859 -0.991730 -15.264074 6.272962 6.178866 29.741934 -7.536966 -18.744021 -5.772140 0.206417 -5.024357 0.000000 0.000000 0.000000 0.000000 0.000000 0.000000 0.230399 -0.130409 19.914365 -0.000000 0.000000 0.000000 -5.585471 -20.007374 7.625778 0.000000 0.000000 0.000000 -0.659534 -1.567879 19.560430 1.320032 1.056314 0.328576 1.168953 0.274230 -0.542296 0.000000 0.000000 0.000000
51.821534 82.609290 425.607503 -0.188897 0.179479 -19.771431 0.238474 -0.105000 19.771945 -0.000000 0.000000 0.000000 0.669755 0.915768 -0.218120 0.000000 0.000000 0.000000 -0.000000 0.000000 0.000000 -0.841400 1.352405 0.943400 -4.106245 13.437719 4.741327 0.833698 -15.100150 -3.153918 0.000000 0.000000 0.000000 0.000000 0.000000 0.000000 7.635609 -5.913523 -0.806936 -12.696997 6.506522 5.021826 28.807789 -7.704031 -16.026672 -5.409239 0.723266 -9.515251 0.000000 0.000000 0.000000 0.000000 0.000000 0.000000 0.238474 -0.105000 19.771945 -0.000000 0.000000 0.000000 -7.380117 -29.350130 10.514839 0.000000 0.000000 0.000000 -0.725363 -1.620287 19.393830 1.412542 1.108959 0.349932 0.840802 0.331865 -0.351415 0.000000 0.000000 0.000000
51.837416 82.627600 425.571344 -0.174223 0.116477 -19.871676 0.203442 -0.050321 19.871942 -0.000000 0.000000 0.000000 0.612235 1.154050 -0.299173 0.000000 0.000000 0.000000 -0.000000 0.000000 0.000000 -1.005550 1.756909 1.204823 -4.431730 12.963215 3.730118 -1.943063 -15.801981 -1.482100 0.000000 0.000000 0.000000 0.000000 0.000000 0.000000 5.966011 -5.125452 -0.640356 -10.175245 6.083786 3.912869 26.125284 -6.940863 -15.023427 -4.015002 1.007876 -10.883278 0.000000 0.000000 0.000000 0.000000 0.000000 0.000000 0.135963 0.794689 19.617501 -0.220154 -0.818615 0.253307 -7.908248 -32.676464 11.353558 0.000000 0.000000 0.000000 -0.814813 -1.573912 19.482313 1.468332 1.096435 0.361145 -0.968575 -1.316972 0.119629 0.000000 0.000000 0.000000
